REM DIRINDEX 1\6,1\2\7,1\2\8,1\2\9,1\3\10,1\3\11,1\4\12,1\4\13,1\4\14,1\5\15,1\5\16,1\5\17
REM DIRNAME cjc040,folder01,folder02,folder03,folder04,folder05,folder06,folder07,folder08,folder09,folder10,folder11,folder12,folder13,folder14,folder15,folder16
TITLE ""
FILE "P2Q_j_1170-1183.mp3" MP3
  TRACK 01 AUDIO
    TITLE "12:cjc040_0254"
    INDEX 01 00:00:00
  TRACK 02 AUDIO
    TITLE "0:"
    INDEX 01 00:01:38
  TRACK 03 AUDIO
    TITLE "13:cjc040_0255"
    INDEX 01 00:02:18
  TRACK 04 AUDIO
    TITLE "0:"
    INDEX 01 00:03:29
  TRACK 05 AUDIO
    TITLE "14:cjc040_0256"
    INDEX 01 00:04:05
  TRACK 06 AUDIO
    TITLE "0:"
    INDEX 01 00:07:74
  TRACK 07 AUDIO
    TITLE "12:cjc040_0257"
    INDEX 01 00:08:50
  TRACK 08 AUDIO
    TITLE "0:"
    INDEX 01 00:10:47
  TRACK 09 AUDIO
    TITLE "13:cjc040_0258"
    INDEX 01 00:11:29
  TRACK 10 AUDIO
    TITLE "0:"
    INDEX 01 00:13:26
  TRACK 11 AUDIO
    TITLE "14:cjc040_0259"
    INDEX 01 00:13:73
  TRACK 12 AUDIO
    TITLE "0:"
    INDEX 01 00:16:00
  TRACK 13 AUDIO
    TITLE "12:cjc040_0260"
    INDEX 01 00:16:55
  TRACK 14 AUDIO
    TITLE "0:"
    INDEX 01 00:17:70
  TRACK 15 AUDIO
    TITLE "13:cjc040_0261"
    INDEX 01 00:18:56
  TRACK 16 AUDIO
    TITLE "0:"
    INDEX 01 00:20:47
  TRACK 17 AUDIO
    TITLE "14:cjc040_0262"
    INDEX 01 00:21:27
  TRACK 18 AUDIO
    TITLE "0:"
    INDEX 01 00:26:40
  TRACK 19 AUDIO
    TITLE "12:cjc040_0263"
    INDEX 01 00:27:22
  TRACK 20 AUDIO
    TITLE "0:"
    INDEX 01 00:28:62
  TRACK 21 AUDIO
    TITLE "13:cjc040_0264"
    INDEX 01 00:29:42
  TRACK 22 AUDIO
    TITLE "0:"
    INDEX 01 00:33:17
  TRACK 23 AUDIO
    TITLE "14:cjc040_0265"
    INDEX 01 00:33:66
  TRACK 24 AUDIO
    TITLE "0:"
    INDEX 01 00:40:62
  TRACK 25 AUDIO
    TITLE "12:cjc040_0266"
    INDEX 01 00:41:44
  TRACK 26 AUDIO
    TITLE "0:"
    INDEX 01 00:42:72
  TRACK 27 AUDIO
    TITLE "13:cjc040_0267"
    INDEX 01 00:43:52
  TRACK 28 AUDIO
    TITLE "0:"
    INDEX 01 00:45:08
  TRACK 29 AUDIO
    TITLE "14:cjc040_0268"
    INDEX 01 00:45:63
  TRACK 30 AUDIO
    TITLE "0:"
    INDEX 01 00:50:56
  TRACK 31 AUDIO
    TITLE "12:cjc040_0269"
    INDEX 01 00:51:34
  TRACK 32 AUDIO
    TITLE "0:"
    INDEX 01 00:52:71
  TRACK 33 AUDIO
    TITLE "13:cjc040_0270"
    INDEX 01 00:53:43
  TRACK 34 AUDIO
    TITLE "0:"
    INDEX 01 00:55:57
  TRACK 35 AUDIO
    TITLE "14:cjc040_0271"
    INDEX 01 00:56:33
  TRACK 36 AUDIO
    TITLE "0:"
    INDEX 01 01:00:15
  TRACK 37 AUDIO
    TITLE "12:cjc040_0272"
    INDEX 01 01:00:70
  TRACK 38 AUDIO
    TITLE "0:"
    INDEX 01 01:02:28
  TRACK 39 AUDIO
    TITLE "13:cjc040_0273"
    INDEX 01 01:03:06
  TRACK 40 AUDIO
    TITLE "0:"
    INDEX 01 01:08:74
  TRACK 41 AUDIO
    TITLE "14:cjc040_0274"
    INDEX 01 01:09:50
  TRACK 42 AUDIO
    TITLE "0:"
    INDEX 01 01:14:21
  TRACK 43 AUDIO
    TITLE "12:cjc040_0275"
    INDEX 01 01:14:70
  TRACK 44 AUDIO
    TITLE "0:"
    INDEX 01 01:16:67
  TRACK 45 AUDIO
    TITLE "13:cjc040_0276"
    INDEX 01 01:17:49
  TRACK 46 AUDIO
    TITLE "0:"
    INDEX 01 01:19:50
  TRACK 47 AUDIO
    TITLE "14:cjc040_0277"
    INDEX 01 01:20:30
  TRACK 48 AUDIO
    TITLE "0:"
    INDEX 01 01:26:38
  TRACK 49 AUDIO
    TITLE "12:cjc040_0278"
    INDEX 01 01:27:16
  TRACK 50 AUDIO
    TITLE "0:"
    INDEX 01 01:28:41
  TRACK 51 AUDIO
    TITLE "13:cjc040_0279"
    INDEX 01 01:29:21
  TRACK 52 AUDIO
    TITLE "0:"
    INDEX 01 01:30:56
  TRACK 53 AUDIO
    TITLE "14:cjc040_0280"
    INDEX 01 01:31:30
  TRACK 54 AUDIO
    TITLE "0:"
    INDEX 01 01:36:41
  TRACK 55 AUDIO
    TITLE "12:cjc040_0281"
    INDEX 01 01:37:19
  TRACK 56 AUDIO
    TITLE "0:"
    INDEX 01 01:38:73
  TRACK 57 AUDIO
    TITLE "13:cjc040_0282"
    INDEX 01 01:39:53
  TRACK 58 AUDIO
    TITLE "0:"
    INDEX 01 01:41:52
  TRACK 59 AUDIO
    TITLE "14:cjc040_0283"
    INDEX 01 01:42:33
  TRACK 60 AUDIO
    TITLE "0:"
    INDEX 01 01:47:56
  TRACK 61 AUDIO
    TITLE "12:cjc040_0284"
    INDEX 01 01:48:44
  TRACK 62 AUDIO
    TITLE "0:"
    INDEX 01 01:49:61
  TRACK 63 AUDIO
    TITLE "13:cjc040_0285"
    INDEX 01 01:50:51
  TRACK 64 AUDIO
    TITLE "0:"
    INDEX 01 01:52:48
  TRACK 65 AUDIO
    TITLE "14:cjc040_0286"
    INDEX 01 01:53:31
  TRACK 66 AUDIO
    TITLE "0:"
    INDEX 01 01:58:01
  TRACK 67 AUDIO
    TITLE "12:cjc040_0287"
    INDEX 01 01:58:58
  TRACK 68 AUDIO
    TITLE "0:"
    INDEX 01 02:01:54
  TRACK 69 AUDIO
    TITLE "13:cjc040_0288"
    INDEX 01 02:02:34
  TRACK 70 AUDIO
    TITLE "0:"
    INDEX 01 02:05:05
  TRACK 71 AUDIO
    TITLE "14:cjc040_0289"
    INDEX 01 02:05:52
  TRACK 72 AUDIO
    TITLE "0:"
    INDEX 01 02:09:11
  TRACK 73 AUDIO
    TITLE "12:cjc040_0290"
    INDEX 01 02:10:02
  TRACK 74 AUDIO
    TITLE "0:"
    INDEX 01 02:11:31
  TRACK 75 AUDIO
    TITLE "13:cjc040_0291"
    INDEX 01 02:12:17
  TRACK 76 AUDIO
    TITLE "0:"
    INDEX 01 02:14:41
  TRACK 77 AUDIO
    TITLE "14:cjc040_0292"
    INDEX 01 02:15:17
  TRACK 78 AUDIO
    TITLE "0:"
    INDEX 01 02:19:37
  TRACK 79 AUDIO
    TITLE "12:cjc040_0293"
    INDEX 01 02:20:11
  TRACK 80 AUDIO
    TITLE "0:"
    INDEX 01 02:22:06
  TRACK 81 AUDIO
    TITLE "13:cjc040_0294"
    INDEX 01 02:22:60
  TRACK 82 AUDIO
    TITLE "0:"
    INDEX 01 02:25:27
  TRACK 83 AUDIO
    TITLE "14:cjc040_0295"
    INDEX 01 02:25:74
  TRACK 84 AUDIO
    TITLE "0:"
    INDEX 01 02:31:38
